<svg xmlns="http://www.w3.org/2000/svg" width="300" height="300">

    <g stroke="white" stroke-width="5" fill="black">

      <rect x="0" y="0" width="100" height="100" transform="rotate(45 150 150) translate(100 -100)"/>

      <rect x="0" y="0" width="100" height="100" transform="rotate(45 150 150) translate(0 0)"/>
      <rect x="0" y="0" width="100" height="100" transform="rotate(45 150 150) translate(100 0)"/>
      <rect x="0" y="0" width="100" height="100" transform="rotate(45 150 150) translate(200 0)"/>

      <rect x="0" y="0" width="100" height="100" transform="rotate(45 150 150) translate(-100 100)"/>
      <rect x="0" y="0" width="100" height="100" transform="rotate(45 150 150) translate(0 100)"/>
      <rect x="0" y="0" width="100" height="100" transform="rotate(45 150 150) translate(200 100)"/>
      <rect x="0" y="0" width="100" height="100" transform="rotate(45 150 150) translate(300 100)"/>

      <rect x="0" y="0" width="100" height="100" transform="rotate(45 150 150) translate(0 200)"/>
      <rect x="0" y="0" width="100" height="100" transform="rotate(45 150 150) translate(100 200)"/>
      <rect x="0" y="0" width="100" height="100" transform="rotate(45 150 150) translate(200 200)"/>

      <rect x="0" y="0" width="100" height="100" transform="rotate(45 150 150) translate(100 300)"/>

      <rect x="0" y="0" width="100" height="100" transform=" translate(0 141) rotate(45 150 150)"/>

      <circle cx="150" cy="150" r="40"/>

      <line x1="110" y1="150" x2="190" y2="150"/>
      <line x1="150" y1="110" x2="150" y2="190"/>

      <rect x="0" y="0" width="200" height="200" transform="translate(-150 105) rotate(45 150 150) scale(0.75)" />

      <!-- Attempt at repeating the shape on the other side using transform matrix -->
      <rect x="0" y="0" width="200" height="200" transform="matrix(0.53 -0.5 0.5 0.53 193 150)" />

    </g>

    <rect x="2.5" y="2.5" width="295" height="295" stroke="black" stroke-width="5" fill="none"/>

</svg>