<svg xmlns="http://www.w3.org/2000/svg" width="300" height="300">

  <rect x="2.5" y="2.5" width="295" height="295" stroke="black" stroke-width="5" fill="none"/>

  <line x1="5" y1="150" x2="295" y2="150" stroke="black" stroke-width="10" />
  <line x1="150" y1="5" x2="150" y2="295" stroke="black" stroke-width="10" />

  <g stroke-width="5" fill="none">

    <g stroke="black">
      <rect x="105" y="105" width="90" height="90"  transform="rotate(45 150 150)"/>
      <rect x="90" y="90" width="120" height="120"  transform="rotate(45 150 150)"/>
      <rect x="75" y="75" width="150" height="150"  transform="rotate(45 150 150)"/>
      <rect x="60" y="60" width="180" height="180"  transform="rotate(45 150 150)"/>
      <rect x="45" y="45" width="210" height="210"  transform="rotate(45 150 150)"/>
      <rect x="30" y="30" width="240" height="240"  transform="rotate(45 150 150)"/>
      <rect x="15" y="15" width="270" height="270"  transform="rotate(45 150 150)"/>
      <rect x="0" y="0" width="300" height="300"  transform="rotate(45 150 150)"/>
      <rect x="-15" y="-15" width="330" height="330"  transform="rotate(45 150 150)"/>
      <rect x="-30" y="-30" width="360" height="360"  transform="rotate(45 150 150)"/>
    </g>
    
    <g stroke="red">

      <g>
        <rect x="50" y="50" width="50" height="50" transform="matrix( 1.25 1 1 1.25 0 0 )"/>
        <rect x="50" y="50" width="50" height="50" transform="matrix( 1.5 1 1 1.5 0 0 )"/>
        <rect x="50" y="50" width="50" height="50" transform="matrix( 1.75 1 1 1.75 0 0 )"/>
        <rect x="50" y="50" width="50" height="50" transform="matrix( 2 1 1 2 0 0 )"/>
      </g>

      <g transform="rotate(90 150 150)">
        <rect x="50" y="50" width="50" height="50" transform="matrix( 1.25 1 1 1.25 0 0 )"/>
        <rect x="50" y="50" width="50" height="50" transform="matrix( 1.5 1 1 1.5 0 0 )"/>
        <rect x="50" y="50" width="50" height="50" transform="matrix( 1.75 1 1 1.75 0 0 )"/>
        <rect x="50" y="50" width="50" height="50" transform="matrix( 2 1 1 2 0 0 )"/>
      </g>

      <g transform="rotate(180 150 150)">
        <rect x="50" y="50" width="50" height="50" transform="matrix( 1.25 1 1 1.25 0 0 )"/>
        <rect x="50" y="50" width="50" height="50" transform="matrix( 1.5 1 1 1.5 0 0 )"/>
        <rect x="50" y="50" width="50" height="50" transform="matrix( 1.75 1 1 1.75 0 0 )"/>
        <rect x="50" y="50" width="50" height="50" transform="matrix( 2 1 1 2 0 0 )"/>
      </g>

      <g transform="rotate(270 150 150)">
        <rect x="50" y="50" width="50" height="50" transform="matrix( 1.25 1 1 1.25 0 0 )"/>
        <rect x="50" y="50" width="50" height="50" transform="matrix( 1.5 1 1 1.5 0 0 )"/>
        <rect x="50" y="50" width="50" height="50" transform="matrix( 1.75 1 1 1.75 0 0 )"/>
        <rect x="50" y="50" width="50" height="50" transform="matrix( 2 1 1 2 0 0 )"/>
      </g>

    </g>

  </g>

</svg>