<svg xmlns="http://www.w3.org/2000/svg" width="300" height="300">
  
  <line x1="150" y1="5" x2="150" y2="295" stroke="black" stroke-width="50"/>
  <line x1="5" y1="150" x2="295" y2="150" stroke="black" stroke-width="50"/>

  <rect width="150" height="35" fill="gray" transform="rotate(045 150 150) skewY(45)"/>
  <rect width="150" height="35" fill="gray" transform="rotate(135 150 150) skewY(45)"/>
  <rect width="150" height="35" fill="gray" transform="rotate(225 150 150) skewY(45)"/>
  <rect width="150" height="35" fill="gray" transform="rotate(315 150 150) skewY(45)"/>

  <rect x="2.5" y="2.5" width="295" height="295" stroke="red" stroke-width="5" fill="none"/>
  <rect x="115" y="115" width="70" height="70" stroke="red" stroke-width="5" fill="white" />

  <circle cx="15" cy="30" r="10" stroke="black" stroke-width="5" transform="skewX(30)"/>
  <circle cx="285" cy="30" r="10" stroke="black" stroke-width="5" transform="skewX(-30)"/>
  <circle cx="110" cy="270" r="10" stroke="black" stroke-width="5" transform="skewX(30)"/>
  <circle cx="190" cy="270" r="10" stroke="black" stroke-width="5" transform="skewX(-30)"/>

  <rect x="37.5" y="37.5" width="30" height="30" stroke="red" stroke-width="5" fill="white"  transform="rotate(000 150 150) scale(1.5 1.5)"/>
  <rect x="37.5" y="37.5" width="30" height="30" stroke="red" stroke-width="5" fill="white"  transform="rotate(090 150 150)  scale(1.5 1.5)"/>
  <rect x="37.5" y="37.5" width="30" height="30" stroke="red" stroke-width="5" fill="white"  transform="rotate(180 150 150)  scale(1.5 1.5)"/>
  <rect x="37.5" y="37.5" width="30" height="30" stroke="red" stroke-width="5" fill="white"  transform="rotate(270 150 150)  scale(1.5 1.5)"/>

  <rect x="0" y="0" width="80" height="80" stroke="red" stroke-width="5" fill="black"  transform="rotate(045 150 150)"/>
  <rect x="0" y="0" width="80" height="80" stroke="red" stroke-width="5" fill="black"  transform="rotate(135 150 150)"/>
  <rect x="0" y="0" width="80" height="80" stroke="red" stroke-width="5" fill="black"  transform="rotate(225 150 150)"/>
  <rect x="0" y="0" width="80" height="80" stroke="red" stroke-width="5" fill="black"  transform="rotate(315 150 150)"/>

</svg>